<svg width="58" height="58" viewBox="0 0 58 58" fill="none"
  xmlns="http://www.w3.org/2000/svg">
  <path d="M36.2472 26.0132V15.5581C36.2472 14.306 35.7498 13.1051 34.8644 12.2197C33.979 11.3343 32.7781 10.8369 31.526 10.8369H26.8048C25.5526 10.8369 24.3518 11.3343 23.4664 12.2197C22.581 13.1051 22.0836 14.306 22.0836 15.5581V35.1181M36.2472 26.0132V53.3278M36.2472 26.0132H45.6896C46.9418 26.0132 48.1426 26.5107 49.028 27.3961C49.9134 28.2815 50.4108 29.4823 50.4108 30.7345V48.6066C50.4108 49.8587 49.9134 51.0596 49.028 51.945C48.1426 52.8304 46.9418 53.3278 45.6896 53.3278H36.2472M22.0836 35.1181V53.3278M22.0836 35.1181H12.6411C11.389 35.1181 10.1881 35.6155 9.30273 36.5009C8.41733 37.3863 7.91992 38.5872 7.91992 39.8393V48.6066C7.91992 49.8587 8.41733 51.0596 9.30273 51.945C10.1881 52.8304 11.389 53.3278 12.6411 53.3278H22.0836M36.2472 53.3278H22.0836" stroke="url(#paint0_linear_2369_1520)" stroke-width="3.54091" stroke-linecap="round" stroke-linejoin="round"/>
  <defs>
    <linearGradient id="paint0_linear_2369_1520" x1="29.1654" y1="10.8369" x2="29.1654" y2="53.3278" gradientUnits="userSpaceOnUse">
      <stop stop-color="#975EF4"/>
      <stop offset="1" stop-color="#C5A1FF"/>
    </linearGradient>
  </defs>
</svg>
