<svg width="58" height="58" viewBox="0 0 58 58" fill="none"
  xmlns="http://www.w3.org/2000/svg">
  <path d="M23.059 27.0901C22.2534 27.8969 21.8009 28.9904 21.8008 30.1306V36.1784H27.8864C29.0266 36.1784 30.1219 35.7252 30.9292 34.9179L48.8698 16.9678C49.2693 16.5684 49.5862 16.0943 49.8024 15.5724C50.0187 15.0505 50.1299 14.4911 50.1299 13.9262C50.1299 13.3613 50.0187 12.8019 49.8024 12.28C49.5862 11.7581 49.2693 11.284 48.8698 10.8846L47.097 9.11174C46.6976 8.71189 46.2233 8.39469 45.7011 8.17828C45.179 7.96186 44.6194 7.85046 44.0542 7.85046C43.489 7.85046 42.9294 7.96186 42.4073 8.17828C41.8852 8.39469 41.4108 8.71189 41.0114 9.11174L23.059 27.0901Z" stroke="url(#paint0_linear_2369_1510)" stroke-width="3.54091" stroke-linecap="round" stroke-linejoin="round"/>
  <path d="M50.1276 29.0968C50.1276 39.1128 50.1276 44.1197 47.0163 47.2309C43.9051 50.3422 38.8959 50.3422 28.8822 50.3422C18.8661 50.3422 13.8593 50.3422 10.748 47.2309C7.63672 44.1197 7.63672 39.1105 7.63672 29.0968C7.63672 19.0807 7.63672 14.0739 10.748 10.9626C13.8593 7.85132 18.8685 7.85132 28.8822 7.85132" stroke="url(#paint1_linear_2369_1510)" stroke-width="3.54091" stroke-linecap="round" stroke-linejoin="round"/>
  <defs>
    <linearGradient id="paint0_linear_2369_1510" x1="35.9654" y1="7.85046" x2="35.9654" y2="36.1784" gradientUnits="userSpaceOnUse">
      <stop stop-color="#975EF4"/>
      <stop offset="1" stop-color="#C5A1FF"/>
    </linearGradient>
    <linearGradient id="paint1_linear_2369_1510" x1="28.8822" y1="7.85132" x2="28.8822" y2="50.3422" gradientUnits="userSpaceOnUse">
      <stop stop-color="#975EF4"/>
      <stop offset="1" stop-color="#C5A1FF"/>
    </linearGradient>
  </defs>
</svg>
