<svg width="55" height="56" viewBox="0 0 55 56" fill="none"
  xmlns="http://www.w3.org/2000/svg">
  <path d="M27.5553 30.1332V28.7255M38.8169 30.1332V28.7255M16.2937 30.1332V28.7255M27.5553 53.3601C32.5668 53.3601 37.4657 51.8741 41.6326 49.0898C45.7995 46.3056 49.0472 42.3483 50.965 37.7183C52.8829 33.0883 53.3846 27.9935 52.4069 23.0783C51.4293 18.1631 49.016 13.6483 45.4723 10.1046C41.9287 6.56094 37.4138 4.14768 32.4986 3.16999C27.5834 2.1923 22.4887 2.69408 17.8587 4.6119C13.2287 6.52971 9.27134 9.77741 6.48711 13.9443C3.70288 18.1112 2.2168 23.0101 2.2168 28.0216C2.2168 32.0758 3.1684 35.9047 4.86326 39.3029C6.13864 41.8677 4.36494 45.3278 3.68925 47.8532C3.53955 48.4118 3.53952 48.9999 3.68917 49.5584C3.83882 50.117 4.13286 50.6263 4.54175 51.0352C4.95063 51.4441 5.45995 51.7381 6.0185 51.8878C6.57706 52.0374 7.16516 52.0374 7.7237 51.8877C10.2491 51.212 13.7092 49.4383 16.274 50.7165C19.7785 52.4607 23.6407 53.3658 27.5553 53.3601Z" stroke="url(#paint0_linear_2369_1526)" stroke-width="3.54091" stroke-linecap="round" stroke-linejoin="round"/>
  <defs>
    <linearGradient id="paint0_linear_2369_1526" x1="27.5553" y1="2.68311" x2="27.5553" y2="53.3602" gradientUnits="userSpaceOnUse">
      <stop stop-color="#975EF4"/>
      <stop offset="1" stop-color="#C5A1FF"/>
    </linearGradient>
  </defs>
</svg>
