<svg fill="none" height="14" viewBox="0 0 14 14" width="14" xmlns="http://www.w3.org/2000/svg" xmlns:xlink="http://www.w3.org/1999/xlink"><clipPath id="a"><path d="m0 0h14v14h-14z"/></clipPath><g clip-path="url(#a)" stroke="#000001" stroke-linecap="round" stroke-linejoin="round"><path d="m4.5.5h-3c-.552285 0-1 .447715-1 1v3c0 .55228.447715 1 1 1h3c.55228 0 1-.44772 1-1v-3c0-.552285-.44772-1-1-1z"/><path d="m12.5.5h-3c-.55228 0-1 .447715-1 1v3c0 .55228.44772 1 1 1h3c.5523 0 1-.44772 1-1v-3c0-.552285-.4477-1-1-1z"/><path d="m4.5 8.5h-3c-.552285 0-1 .44772-1 1v3c0 .5523.447715 1 1 1h3c.55228 0 1-.4477 1-1v-3c0-.55228-.44772-1-1-1z"/><path d="m12.5 8.5h-3c-.55228 0-1 .44772-1 1v3c0 .5523.44772 1 1 1h3c.5523 0 1-.4477 1-1v-3c0-.55228-.4477-1-1-1z"/></g></svg>