<svg width="20" height="25" viewBox="0 0 20 25" fill="none" xmlns="http://www.w3.org/2000/svg">
<path d="M10.2825 7.79395C9.33448 7.79395 7.86748 6.71595 6.32248 6.75395C4.28248 6.78095 2.41248 7.93695 1.36148 9.76795C-0.755518 13.4429 0.815482 18.8709 2.88048 21.8579C3.89348 23.3119 5.08848 24.948 6.67248 24.8969C8.19248 24.8319 8.76248 23.9099 10.6075 23.9099C12.4385 23.9099 12.9575 24.8969 14.5675 24.8579C16.2045 24.8319 17.2435 23.3779 18.2435 21.9099C19.3995 20.2219 19.8795 18.5849 19.9055 18.4949C19.8665 18.4819 16.7235 17.2739 16.6855 13.6379C16.6595 10.5979 19.1655 9.14395 19.2825 9.07895C17.8535 6.98895 15.6595 6.75495 14.8925 6.70295C12.8925 6.54695 11.2175 7.79395 10.2825 7.79395ZM13.6605 4.72795C14.5035 3.71595 15.0605 2.30095 14.9055 0.897949C13.6985 0.949949 12.2435 1.70295 11.3735 2.71595C10.5935 3.61195 9.91948 5.05395 10.1005 6.42995C11.4385 6.53395 12.8155 5.74195 13.6595 4.72895" fill="white"/>
</svg>
