<svg width="68" height="67" viewBox="0 0 68 67" fill="none" xmlns="http://www.w3.org/2000/svg">
<circle cx="34.0481" cy="33.4504" r="33.2395" fill="#E1FFE9"/>
<path d="M22.1953 44.1323V21.1486M41.3484 35.1942H31.1334C29.9434 35.1942 29.3484 35.1942 28.8798 35.3883C28.5697 35.5166 28.288 35.7048 28.0507 35.9421C27.8134 36.1793 27.6252 36.4611 27.4969 36.7711C27.3028 37.2397 27.3028 37.8347 27.3028 39.0248C27.3028 40.2148 27.3028 40.8098 27.4969 41.2785C27.6252 41.5885 27.8134 41.8702 28.0507 42.1075C28.288 42.3448 28.5697 42.533 28.8798 42.6613C29.3484 42.8554 29.9434 42.8554 31.1334 42.8554H41.3484C42.5385 42.8554 43.1335 42.8554 43.6021 42.6613C43.9122 42.533 44.1939 42.3448 44.4312 42.1075C44.6684 41.8702 44.8566 41.5885 44.985 41.2785C45.1791 40.8098 45.1791 40.2148 45.1791 39.0248C45.1791 37.8347 45.1791 37.2397 44.985 36.7711C44.8566 36.4611 44.6684 36.1793 44.4312 35.9421C44.1939 35.7048 43.9122 35.5166 43.6021 35.3883C43.1335 35.1942 42.5385 35.1942 41.3484 35.1942ZM36.2409 22.4255H31.1334C29.9434 22.4255 29.3484 22.4255 28.8798 22.6196C28.5697 22.7479 28.288 22.9361 28.0507 23.1734C27.8134 23.4107 27.6252 23.6924 27.4969 24.0024C27.3028 24.471 27.3028 25.0661 27.3028 26.2561C27.3028 27.4461 27.3028 28.0412 27.4969 28.5098C27.6252 28.8198 27.8134 29.1015 28.0507 29.3388C28.288 29.5761 28.5697 29.7643 28.8798 29.8926C29.3484 30.0867 29.9434 30.0867 31.1334 30.0867H36.2409C37.431 30.0867 38.026 30.0867 38.4946 29.8926C38.8047 29.7643 39.0864 29.5761 39.3237 29.3388C39.5609 29.1015 39.7491 28.8198 39.8775 28.5098C40.0716 28.0412 40.0716 27.4461 40.0716 26.2561C40.0716 25.0661 40.0716 24.471 39.8775 24.0024C39.7491 23.6924 39.5609 23.4107 39.3237 23.1734C39.0864 22.9361 38.8047 22.7479 38.4946 22.6196C38.026 22.4255 37.431 22.4255 36.2409 22.4255Z" stroke="#2DAA50" stroke-width="1.91531" stroke-linecap="round" stroke-linejoin="round"/>
</svg>
