<svg width="68" height="67" viewBox="0 0 68 67" fill="none"
  xmlns="http://www.w3.org/2000/svg">
  <circle cx="33.8235" cy="33.4504" r="33.2395" fill="#F5EFFF" />
  <g clip-path="url(#clip0_2369_2102)">
    <path d="M44.0439 30.9289C44.0523 30.6819 44.0059 30.4361 43.9079 30.2092C43.8099 29.9824 43.6628 29.78 43.4772 29.6169L34.9399 22.0622C34.6327 21.7878 34.2352 21.6361 33.8232 21.6361C33.4113 21.6361 33.0138 21.7878 32.7066 22.0622L24.1709 29.6162C23.9804 29.7775 23.8278 29.9787 23.7237 30.2055C23.6196 30.4324 23.5666 30.6793 23.5686 30.9289V43.5879C23.5598 44.0482 23.7338 44.4932 24.0524 44.8255C24.371 45.1578 24.8083 45.3503 25.2686 45.3609H42.3436C42.8038 45.3503 43.2411 45.1578 43.5597 44.8255C43.8783 44.4932 44.0523 44.0482 44.0436 43.5879L44.0439 30.9289ZM33.8062 28.4812C35.1265 28.4728 36.4196 28.8567 37.5215 29.5841C38.6234 30.3115 39.4844 31.3498 39.9955 32.5672C40.5066 33.7846 40.6447 35.1263 40.3922 36.4223C40.1398 37.7183 39.5082 38.9102 38.5776 39.8467C37.647 40.7833 36.4592 41.4225 35.1648 41.6832C33.8705 41.9439 32.5279 41.8143 31.3072 41.311C30.0866 40.8077 29.0429 39.9533 28.3084 38.856C27.574 37.7588 27.1819 36.4682 27.1819 35.1479C27.179 33.3862 27.8746 31.6952 29.1163 30.4455C30.358 29.1959 32.0446 28.4895 33.8062 28.4812ZM33.8062 29.6515C32.7188 29.6503 31.6555 29.9717 30.7508 30.575C29.8461 31.1783 29.1406 32.0363 28.7237 33.0406C28.3067 34.0449 28.197 35.1503 28.4085 36.217C28.6199 37.2836 29.143 38.2636 29.9115 39.0329C30.68 39.8022 31.6594 40.3263 32.7259 40.5388C33.7923 40.7514 34.8978 40.6428 35.9025 40.2269C36.9073 39.811 37.7661 39.1065 38.3703 38.2024C38.9745 37.2983 39.297 36.2353 39.2969 35.1479C39.2959 33.6914 38.7173 32.2948 37.688 31.2644C36.6587 30.2341 35.2627 29.654 33.8062 29.6515ZM36.0396 32.8785C36.5356 32.3119 37.4212 33.0559 36.9252 33.6232L33.8416 37.2049C33.7342 37.33 33.6011 37.4304 33.4513 37.4992C33.3015 37.568 33.1386 37.6037 32.9737 37.6037C32.8089 37.6037 32.646 37.568 32.4962 37.4992C32.3464 37.4304 32.2133 37.33 32.1059 37.2049L30.7239 35.6089C30.6205 35.4961 30.5661 35.3468 30.5727 35.1939C30.5793 35.041 30.6464 34.897 30.7592 34.7935C30.872 34.6901 31.0213 34.6357 31.1742 34.6423C31.3271 34.649 31.4711 34.7161 31.5746 34.8289L32.7436 36.1765C32.7719 36.2099 32.8072 36.2367 32.8469 36.2551C32.8867 36.2735 32.9299 36.283 32.9737 36.283C33.0175 36.283 33.0608 36.2735 33.1005 36.2551C33.1403 36.2367 33.1755 36.2099 33.2039 36.1765L36.0396 32.8785ZM45.2129 43.5879C45.2178 44.3539 44.9183 45.0905 44.3802 45.6357C43.8421 46.181 43.1096 46.4902 42.3436 46.4955H25.2689C24.5086 46.4826 23.7841 46.1698 23.2534 45.6252C22.7227 45.0806 22.4288 44.3483 22.4356 43.5879V30.9289C22.4277 30.5204 22.5093 30.1151 22.6746 29.7415C22.8398 29.3679 23.0847 29.0349 23.3922 28.7659L31.9286 21.1765C32.4446 20.714 33.1131 20.4583 33.8061 20.4583C34.499 20.4583 35.1675 20.714 35.6836 21.1765L44.2209 28.7652C44.5332 29.0324 44.7836 29.3643 44.9549 29.7379C45.1262 30.1115 45.2142 30.5179 45.2129 30.9289V43.5879ZM48.6129 28.4105C48.6721 28.4587 48.721 28.5183 48.7567 28.5858C48.7924 28.6533 48.8142 28.7272 48.8208 28.8032C48.8274 28.8793 48.8186 28.9559 48.795 29.0285C48.7715 29.1011 48.7336 29.1682 48.6836 29.2259C48.5772 29.3334 48.4343 29.3968 48.2832 29.4034C48.1322 29.41 47.9842 29.3593 47.8689 29.2615L34.9399 18.0559C34.626 17.7817 34.2233 17.6306 33.8066 17.6306C33.3898 17.6306 32.9871 17.7817 32.6732 18.0559L27.7132 22.3822C27.6269 22.4528 27.5223 22.4973 27.4116 22.5105C27.3009 22.5236 27.1887 22.5049 27.0883 22.4565C26.9878 22.408 26.9033 22.3319 26.8447 22.2371C26.786 22.1423 26.7557 22.0327 26.7572 21.9212V20.3622C26.7578 20.3248 26.7508 20.2877 26.7367 20.253C26.7227 20.2184 26.7018 20.1869 26.6753 20.1604C26.6489 20.134 26.6174 20.1131 26.5827 20.099C26.5481 20.085 26.511 20.078 26.4736 20.0785H23.8519C23.8145 20.078 23.7774 20.085 23.7427 20.099C23.7081 20.1131 23.6766 20.134 23.6502 20.1604C23.6238 20.1869 23.603 20.2184 23.5889 20.253C23.5749 20.2877 23.568 20.3248 23.5686 20.3622V25.7155C23.571 25.8036 23.5531 25.891 23.5162 25.9709C23.4793 26.0509 23.4245 26.1213 23.3559 26.1765L19.7782 29.2622C19.6629 29.36 19.5149 29.4106 19.3639 29.404C19.2129 29.3974 19.0699 29.334 18.9636 29.2265C18.9136 29.1689 18.8756 29.1017 18.8521 29.0291C18.8285 28.9565 18.8198 28.88 18.8263 28.8039C18.8329 28.7279 18.8547 28.6539 18.8904 28.5865C18.9262 28.519 18.975 28.4594 19.0342 28.4112L22.3289 25.5389C22.3598 25.5122 22.3851 25.4796 22.4033 25.443C22.4215 25.4065 22.4323 25.3666 22.4349 25.3259V20.0772C22.4275 19.9265 22.4521 19.776 22.5071 19.6355C22.5621 19.4951 22.6462 19.3678 22.7539 19.2622C22.8595 19.1521 22.9858 19.0641 23.1257 19.0032C23.2655 18.9423 23.4161 18.9098 23.5686 18.9075H26.7572C27.0576 18.9158 27.3457 19.0286 27.5719 19.2265C27.6769 19.3343 27.7592 19.4619 27.8139 19.6021C27.8687 19.7422 27.8947 19.8918 27.8906 20.0422C27.892 20.099 27.9097 20.1542 27.9415 20.2013C27.9734 20.2484 28.0181 20.2853 28.0703 20.3077C28.1225 20.3301 28.18 20.3371 28.2361 20.3278C28.2922 20.3185 28.3444 20.2933 28.3866 20.2552L31.9286 17.2049C32.4403 16.7364 33.1125 16.4825 33.8062 16.4955C34.5095 16.4881 35.1908 16.7407 35.7192 17.2049L48.6129 28.4105Z" fill="#7C3DE1"/>
  </g>
  <defs>
    <clipPath id="clip0_2369_2102">
      <rect width="30" height="30" fill="white" transform="translate(18.8242 16.4955)"/>
    </clipPath>
  </defs>
</svg>
