<svg width="68" height="67" viewBox="0 0 68 67" fill="none"
  xmlns="http://www.w3.org/2000/svg">
  <circle cx="33.9075" cy="33.4504" r="33.2395" fill="#EFEFEF"/>
  <path d="M34.8845 38.9967V32.6123H34.2461M34.2461 38.9967H35.523M34.8845 29.4202V28.7817" stroke="#4A4A4A" stroke-width="1.91531" stroke-linecap="round" stroke-linejoin="round"/>
  <path d="M23.3926 30.5694C23.3926 27.7092 23.3926 26.2791 23.9493 25.1861C24.439 24.2252 25.2203 23.4438 26.1813 22.9542C27.2743 22.3975 28.7044 22.3975 31.5646 22.3975H38.2043C41.0645 22.3975 42.4946 22.3975 43.5876 22.9542C44.5486 23.4438 45.3299 24.2252 45.8196 25.1861C46.3763 26.2791 46.3763 27.7092 46.3763 30.5694V37.2091C46.3763 40.0693 46.3763 41.4994 45.8196 42.5924C45.3299 43.5534 44.5486 44.3347 43.5876 44.8244C42.4946 45.3811 41.0645 45.3811 38.2043 45.3811H31.5646C28.7044 45.3811 27.2743 45.3811 26.1813 44.8244C25.2203 44.3347 24.439 43.5534 23.9493 42.5924C23.3926 41.4994 23.3926 40.0693 23.3926 37.2091V30.5694Z" stroke="#4A4A4A" stroke-width="1.91531" stroke-linecap="round" stroke-linejoin="round"/>
</svg>
