<svg width="71" height="70" viewBox="0 0 71 70" fill="none" xmlns="http://www.w3.org/2000/svg">
<circle cx="35.7108" cy="34.8671" r="34.7244" fill="#F5EFFF"/>
<path d="M42.8887 44.0082C42.8887 41.6464 39.6973 39.7321 35.7619 39.7321C31.8265 39.7321 28.6351 41.6464 28.6351 44.0082M48.5902 39.7321C48.5902 37.9789 46.8313 36.4723 44.3141 35.8124M22.9336 39.7321C22.9336 37.9789 24.6925 36.4723 27.2097 35.8124M44.3141 30.0909C44.7364 29.7176 45.0807 29.2645 45.3272 28.7576C45.5738 28.2508 45.7177 27.7002 45.7506 27.1375C45.7836 26.5748 45.7051 26.0112 45.5194 25.479C45.3338 24.9468 45.0448 24.4566 44.669 24.0365C44.2933 23.6164 43.8382 23.2747 43.3299 23.0311C42.8216 22.7875 42.2702 22.6468 41.7073 22.6171C41.1445 22.5874 40.5813 22.6692 40.0502 22.8579C39.5191 23.0466 39.0305 23.3385 38.6126 23.7167M27.2097 30.0909C26.372 29.3328 25.8684 28.2741 25.8088 27.1458C25.7492 26.0176 26.1386 24.9117 26.8918 24.0696C27.645 23.2275 28.7008 22.7177 29.8287 22.6516C30.9565 22.5855 32.0647 22.9684 32.9112 23.7167M35.7619 35.456C34.6278 35.456 33.5402 35.0055 32.7382 34.2036C31.9363 33.4016 31.4858 32.314 31.4858 31.1799C31.4858 30.0458 31.9363 28.9582 32.7382 28.1563C33.5402 27.3543 34.6278 26.9038 35.7619 26.9038C36.896 26.9038 37.9836 27.3543 38.7855 28.1563C39.5875 28.9582 40.038 30.0458 40.038 31.1799C40.038 32.314 39.5875 33.4016 38.7855 34.2036C37.9836 35.0055 36.896 35.456 35.7619 35.456Z" stroke="#7C3DE1" stroke-width="1.91531" stroke-linecap="round" stroke-linejoin="round"/>
</svg>
