<svg version="1.1" xmlns="http://www.w3.org/2000/svg" width="176" height="194">
<path d="M0 0 C58.08 0 116.16 0 176 0 C176 64.02 176 128.04 176 194 C117.92 194 59.84 194 0 194 C0 129.98 0 65.96 0 0 Z " fill="#FDFCFE" transform="translate(0,0)"/>
<path d="M0 0 C5.29053636 0.02901574 8.88723106 3.67469958 12.8125 6.8125 C14.34189343 8.00852188 15.8718541 9.20381871 17.40234375 10.3984375 C18.17304199 11.00397461 18.94374023 11.60951172 19.73779297 12.23339844 C23.08360205 14.84620596 26.47472368 17.39620469 29.875 19.9375 C30.84626831 20.6651355 30.84626831 20.6651355 31.8371582 21.4074707 C37.03887731 25.29780002 42.26782273 29.15078171 47.5 33 C53.65421954 37.53037197 59.80765789 42.0616731 65.9375 46.625 C66.59363281 47.1096875 67.24976563 47.594375 67.92578125 48.09375 C68.53679687 48.55007812 69.1478125 49.00640625 69.77734375 49.4765625 C70.30577881 49.86924316 70.83421387 50.26192383 71.37866211 50.66650391 C71.91370361 51.10655762 72.44874512 51.54661133 73 52 C74.02512947 52.75975128 74.02512947 52.75975128 75.07096863 53.53485107 C77.84694222 57.08232491 77.54406406 60.45844349 77.48583984 64.77587891 C77.48963654 65.66082535 77.49343323 66.54577179 77.49734497 67.45753479 C77.50475116 70.38090518 77.48337037 73.30328056 77.4609375 76.2265625 C77.45855343 78.2562956 77.45764768 80.28603094 77.4581604 82.31576538 C77.45503248 86.56774728 77.43846514 90.81939197 77.41162109 95.07128906 C77.37759808 100.53035345 77.36999372 105.98904795 77.37151146 111.44820595 C77.37096857 115.63798576 77.36001509 119.82768418 77.34550858 124.01743698 C77.33913075 126.03094237 77.33519939 128.04445701 77.33372116 130.05797195 C77.32940104 132.86644579 77.3119293 135.67452141 77.29052734 138.48291016 C77.29143372 139.32035263 77.29234009 140.1577951 77.29327393 141.02061462 C77.22895801 146.77104199 77.22895801 146.77104199 75 149 C72.79882813 149.26069641 72.79882813 149.26069641 70.03125 149.2746582 C68.99677734 149.28419022 67.96230469 149.29372223 66.89648438 149.30354309 C65.77564453 149.30263168 64.65480469 149.30172028 63.5 149.30078125 C62.35337891 149.30506638 61.20675781 149.3093515 60.02539062 149.31376648 C57.59766298 149.31951738 55.1699181 149.32000448 52.7421875 149.31567383 C49.01532806 149.312513 45.28926124 149.33596763 41.5625 149.36132812 C39.20833434 149.36360083 36.85416653 149.36430475 34.5 149.36328125 C32.81874023 149.37709587 32.81874023 149.37709587 31.10351562 149.39118958 C29.55180664 149.38184639 29.55180664 149.38184639 27.96875 149.37231445 C27.05544922 149.37294388 26.14214844 149.3735733 25.20117188 149.3742218 C24.47478516 149.25072861 23.74839844 149.12723541 23 149 C20.28767061 144.93150591 20.69300113 142.83523216 21 138 C23 136 23 136 26.99072266 135.77294922 C28.71520165 135.77345008 30.43970132 135.78452418 32.1640625 135.8046875 C32.96803467 135.80670166 33.77200684 135.80871582 34.6003418 135.81079102 C37.60861909 135.82126887 40.61681517 135.84919141 43.625 135.875 C53.710625 135.936875 53.710625 135.936875 64 136 C64 122.47 64 108.94 64 95 C50.88096101 95.03960462 50.88096101 95.03960462 37.76196289 95.09008789 C36.12386134 95.09300701 34.48575906 95.09555558 32.84765625 95.09765625 C31.55982239 95.1053302 31.55982239 95.1053302 30.24597168 95.11315918 C28.16363948 95.1134691 26.0813964 95.06242176 24 95 C23 94 23 94 22.8671875 91.53125 C22.86976562 90.5309375 22.87234375 89.530625 22.875 88.5 C22.87242188 87.4996875 22.86984375 86.499375 22.8671875 85.46875 C23 83 23 83 24 82 C26.95705321 81.91131701 29.89065056 81.88479704 32.84765625 81.90234375 C34.17729652 81.90446617 34.17729652 81.90446617 35.53379822 81.90663147 C38.37673254 81.91224785 41.21958931 81.92480309 44.0625 81.9375 C45.98502491 81.94251289 47.90755104 81.94707616 49.83007812 81.95117188 C54.55343964 81.96137352 59.27663258 81.98094563 64 82 C64 75.07 64 68.14 64 61 C62.35 60.34 60.7 59.68 59 59 C57.02734375 57.58203125 57.02734375 57.58203125 54.9375 55.8125 C49.8017254 51.59163136 44.5158058 47.59953429 39.1875 43.625 C32.26138646 38.45208906 25.36844341 33.24295359 18.53125 27.953125 C16.36730446 26.28341394 14.18846329 24.63728617 12 23 C11.99413376 23.6573262 11.98826752 24.3146524 11.98222351 24.99189758 C11.91838697 31.82130098 11.83399271 38.65022887 11.73754883 45.47924805 C11.7042539 48.02931456 11.67623637 50.57945559 11.65356445 53.12963867 C11.620103 56.79117649 11.56779019 60.45202864 11.51171875 64.11328125 C11.50213387 65.82902092 11.50213387 65.82902092 11.49235535 67.579422 C11.47256119 68.64029526 11.45276703 69.70116852 11.43237305 70.79418945 C11.41571846 72.19650566 11.41571846 72.19650566 11.39872742 73.62715149 C11 76 11 76 9.69172668 77.80192566 C6.8594115 79.80776039 4.34119359 79.35798503 1 79 C-0.69548035 77.92042542 -0.69548035 77.92042542 -2 76 C-2.3742218 72.84336853 -2.3742218 72.84336853 -2.37231445 68.89819336 C-2.37596512 68.17920364 -2.37961578 67.46021393 -2.38337708 66.71943665 C-2.39148384 64.34266549 -2.37787333 61.96657578 -2.36328125 59.58984375 C-2.36276271 57.93982443 -2.36328017 56.28980448 -2.36479187 54.63978577 C-2.36470214 51.182208 -2.35427123 47.72486339 -2.33618164 44.26733398 C-2.31347661 39.82946727 -2.3129535 35.39194078 -2.31969929 30.95403194 C-2.32303603 27.54745953 -2.31641508 24.14096507 -2.30657005 20.73440742 C-2.30271399 19.09769664 -2.30157151 17.46097718 -2.3031559 15.82426262 C-2.30352561 13.54014339 -2.29093404 11.25646525 -2.2746582 8.97241211 C-2.27005081 7.6712999 -2.26544342 6.37018768 -2.26069641 5.02964783 C-2 2 -2 2 0 0 Z " fill="#814DC4" transform="translate(83,2)"/>
<path d="M0 0 C0.10853983 2.22808159 0.18583307 4.45769932 0.25 6.6875 C0.29640625 7.92886719 0.3428125 9.17023437 0.390625 10.44921875 C-0.16272456 15.47916626 -2.04957443 17.42142709 -5.91699219 20.55151367 C-8.24849165 22.32849574 -10.61573294 24.04452534 -13 25.75 C-14.71640543 26.99573615 -16.43255156 28.24182965 -18.1484375 29.48828125 C-18.98084961 30.08979004 -19.81326172 30.69129883 -20.67089844 31.31103516 C-23.6777037 33.49144174 -26.65457992 35.70776606 -29.625 37.9375 C-30.46289062 38.56527344 -31.30078125 39.19304688 -32.1640625 39.83984375 C-33.56785156 40.90912109 -33.56785156 40.90912109 -35 42 C-35.72834549 42.37919586 -36.45669098 42.75839172 -37.20710754 43.14907837 C-40.07160639 44.85652622 -41.93379709 46.36382932 -44 49 C-45.33898267 54.61491361 -45.19024762 60.12651365 -45.09765625 65.87109375 C-45.10331402 67.52020537 -45.11293109 69.16930773 -45.12632751 70.81837463 C-45.150877 75.14105068 -45.12191674 79.46174855 -45.08154297 83.78424072 C-45.04425378 88.97974839 -45.07388922 94.17525948 -45.09221649 99.37081146 C-45.11255649 107.2483911 -45.04826514 115.12119827 -45 123 C-27.18 123 -9.36 123 9 123 C9 113.76 9 104.52 9 95 C-0.1698291 95.03959518 -0.1698291 95.03959518 -9.33959961 95.09008789 C-10.47405518 95.09258545 -11.60851074 95.09508301 -12.77734375 95.09765625 C-14.52905884 95.10551147 -14.52905884 95.10551147 -16.31616211 95.11352539 C-19 95 -19 95 -20 94 C-20.1245486 92.35769636 -20.17568524 90.70947724 -20.1875 89.0625 C-20.20167969 88.16660156 -20.21585938 87.27070312 -20.23046875 86.34765625 C-20 84 -20 84 -18 82 C-15.23821562 81.8001303 -12.57889917 81.72021099 -9.81640625 81.734375 C-9.0050975 81.73246155 -8.19378876 81.7305481 -7.3578949 81.72857666 C-5.6405303 81.72721458 -3.92315541 81.73091262 -2.20581055 81.73925781 C0.42357548 81.74994341 3.05227612 81.73937065 5.68164062 81.7265625 C7.34895984 81.72788436 9.01627863 81.73044731 10.68359375 81.734375 C11.47116562 81.73032654 12.25873749 81.72627808 13.07017517 81.72210693 C16.90649167 81.75505318 18.73257611 81.8217174 22 84 C22.38095093 86.12524414 22.38095093 86.12524414 22.38818359 88.78515625 C22.39764008 89.7795874 22.40709656 90.77401855 22.4168396 91.79858398 C22.41076691 92.87567627 22.40469421 93.95276855 22.3984375 95.0625 C22.40130768 96.164729 22.40417786 97.26695801 22.40713501 98.40258789 C22.40917919 100.73617058 22.40362475 103.06977027 22.39111328 105.40332031 C22.37506535 108.98541396 22.39095082 112.56637916 22.41015625 116.1484375 C22.40817388 118.41146084 22.40433034 120.67448347 22.3984375 122.9375 C22.40451019 124.01459229 22.41058289 125.09168457 22.4168396 126.20141602 C22.40265488 127.69306274 22.40265488 127.69306274 22.38818359 129.21484375 C22.38579681 130.09261475 22.38341003 130.97038574 22.38095093 131.87475586 C22.25523712 132.57608643 22.12952332 133.27741699 22 134 C18.25251065 136.49832623 16.28674247 136.25338692 11.80639648 136.25878906 C11.0776532 136.2622937 10.34890991 136.26579834 9.5980835 136.26940918 C7.18899006 136.27821276 4.78019017 136.2723829 2.37109375 136.265625 C0.6986536 136.2669719 -0.97378617 136.26891264 -2.64622498 136.27142334 C-6.15082528 136.27437261 -9.65532365 136.27008275 -13.15991211 136.26074219 C-17.65829599 136.24933892 -22.15644146 136.25591384 -26.65481663 136.26788712 C-30.10769965 136.27510352 -33.56052586 136.27281896 -37.01341057 136.26763153 C-38.67245448 136.26629488 -40.33150351 136.26794329 -41.99054146 136.27259064 C-44.30576435 136.27765328 -46.62059727 136.26995002 -48.93579102 136.25878906 C-50.25466812 136.25719788 -51.57354523 136.25560669 -52.93238831 136.25396729 C-56 136 -56 136 -58 134 C-58.23548004 131.15192195 -58.34602894 128.39840071 -58.36987305 125.54638672 C-58.38462173 124.67137009 -58.39937042 123.79635345 -58.41456604 122.89482117 C-58.45920142 119.98978857 -58.48734673 117.0849577 -58.51171875 114.1796875 C-58.52581756 112.69147177 -58.52581756 112.69147177 -58.54020119 111.17319107 C-58.58782176 105.91854008 -58.62148249 100.66398968 -58.64526367 95.40917969 C-58.67293603 89.98793209 -58.75205978 84.56871153 -58.84280682 79.14820671 C-58.90270783 74.97534299 -58.92253896 70.80295831 -58.93177223 66.62970352 C-58.94334066 64.63216666 -58.97015187 62.63465606 -59.01270103 60.63753891 C-59.32602545 44.99983103 -59.32602545 44.99983103 -56.02404785 40.01998901 C-53.77160317 37.98971516 -51.63926114 36.47481149 -49 35 C-48.13632812 34.32710937 -47.27265625 33.65421875 -46.3828125 32.9609375 C-45.63773438 32.43757813 -44.89265625 31.91421875 -44.125 31.375 C-43.20460938 30.71886719 -42.28421875 30.06273438 -41.3359375 29.38671875 C-40.81870117 29.01853027 -40.30146484 28.6503418 -39.76855469 28.27099609 C-36.06941626 25.61255951 -32.41409415 22.89390837 -28.75 20.1875 C-27.10949746 18.97769851 -25.46887261 17.76806285 -23.828125 16.55859375 C-23.02181641 15.9641748 -22.21550781 15.36975586 -21.38476562 14.75732422 C-17.75867112 12.08526973 -14.13044692 9.41613758 -10.5 6.75 C-9.57525879 6.06973755 -9.57525879 6.06973755 -8.63183594 5.37573242 C-1.30666209 0 -1.30666209 0 0 0 Z " fill="#9255C8" transform="translate(72,15)"/>
   <text x="50" y="180" font-family="Arial, sans-serif" font-size="20"  text-anchor="middle" fill="#7C3DE1">
    GOBY
  </text>
  <text x="120" y="180" font-family="Arial, sans-serif" font-size="20" font-weight="bold" text-anchor="middle" fill="#7C3DE1">
    HOMES
  </text>
</svg>